HIERARCHY
ROOT simHips
{
  OFFSET -201.971 99.875 1.0017
  CHANNELS 6 Xposition Yposition Zposition Zrotation Xrotation Yrotation
  JOINT simSpine
  {
    OFFSET -0.000355721 21.3001 -0.016921
    CHANNELS 3 Zrotation Xrotation Yrotation
    JOINT simLeftArm
    {
      OFFSET 13.5181 21.3012 0
      CHANNELS 3 Zrotation Xrotation Yrotation
      JOINT simLeftForeArm
      {
        OFFSET 24.5783 0 0
        CHANNELS 3 Zrotation Xrotation Yrotation
        JOINT simLeftHand
        {
          OFFSET 24.5783 0 0
          CHANNELS 3 Zrotation Xrotation Yrotation
          End Site
          {
            OFFSET 7.32568 1.52588e-05 0.0169305
          }
        }
      }
    }
    JOINT simHead
    {
      OFFSET 0 27.4458 -0.00489235
      CHANNELS 3 Zrotation Xrotation Yrotation
      End Site
      {
        OFFSET 0 0 0
      }
    }
    JOINT simRightArm
    {
      OFFSET -13.5174 21.3012 0
      CHANNELS 3 Zrotation Xrotation Yrotation
      JOINT simRightForeArm
      {
        OFFSET -24.5783 0 0
        CHANNELS 3 Zrotation Xrotation Yrotation
        JOINT simRightHand
        {
          OFFSET -24.5783 0 0
          CHANNELS 3 Zrotation Xrotation Yrotation
          End Site
          {
            OFFSET -7.32568 1.52588e-05 0.0169305
          }
        }
      }
    }
  }
  JOINT simRightUpLeg
  {
    OFFSET -8.44614 -9.41038 0.835684
    CHANNELS 3 Zrotation Xrotation Yrotation
    JOINT simRightLeg
    {
      OFFSET 0 -40.9639 0
      CHANNELS 3 Zrotation Xrotation Yrotation
      JOINT simRightFoot
      {
        OFFSET 0 -40.9639 0
        CHANNELS 3 Zrotation Xrotation Yrotation
        End Site
        {
          OFFSET 0.50614 -9.67405 14.6709
        }
      }
    }
  }
  JOINT simLeftUpLeg
  {
    OFFSET 8.44614 -9.41038 0.835684
    CHANNELS 3 Zrotation Xrotation Yrotation
    JOINT simLeftLeg
    {
      OFFSET 0 -40.9639 0
      CHANNELS 3 Zrotation Xrotation Yrotation
      JOINT simLeftFoot
      {
        OFFSET 0 -40.9639 0
        CHANNELS 3 Zrotation Xrotation Yrotation
        End Site
        {
          OFFSET -0.50614 -9.67405 14.6709
        }
      }
    }
  }
}
MOTION
Frames:	22
Frame Time:	0.0333333
-201.971 99.875 1.0017 1.70755e-06 0 -0 -1.70755e-06 0 -0 -6.83019e-06 -1.70755e-06 -1.53679e-05 6.83019e-06 1.70755e-06 2.50273e-05 -5.23362e-30 -2.8249e-30 -9.65935e-06 0 0 -0 6.83019e-06 -8.53773e-07 5.12264e-06 0.00192038 -5.97642e-06 -1.70559e-06 -5.75742e-13 6.83019e-06 9.65935e-06 -0.679624 2.83807 0.0172168 0.000148812 0.150193 0.00134307 0.679577 -2.98826 0.0189139 -1.87539 2.13277 0.0368394 -0.00508196 0.237184 -0.00332839 1.87554 -2.36993 0.039582 
-201.982 99.8728 1.05527 -0.0178795 0.0653875 0.0414643 0.000613725 -0.0927185 -0.135291 0.113572 0.0662167 0.0117318 -0.0293214 0.219283 -0.0160911 -0.0564381 -0.0681347 0.0853169 -0.492699 -0.0769747 -1.65391 -0.0674825 0.0695484 -0.0840848 0.00192039 0.167066 -1.7056e-06 0.133405 -0.0427935 0.0675944 -0.658472 2.77596 -0.0135926 0.00475235 0.214531 0.00134308 0.70945 -3.03595 0.0189148 -1.83726 2.1753 0.17877 -0.00508595 0.16843 -0.00332838 1.77996 -2.42168 -0.140301 
-202 99.8746 1.10799 -0.0209529 0.0934814 0.0560298 -0.032133 -0.146136 -0.246209 0.224883 0.232494 0.0562132 -0.0175458 0.129545 -0.00967227 -0.0367823 -0.0668008 0.105418 -1.02235 -0.165235 -3.58917 -0.0729741 0.19148 -0.194073 0.00192039 0.167023 -1.7056e-06 0.0628252 -0.0701381 0.0824417 -0.646787 2.6974 -0.0082516 0.0138352 0.33395 0.00134309 0.667135 -3.08877 0.0115912 -1.83396 2.08109 0.111286 -0.00508263 0.225571 -0.00332839 1.77519 -2.41058 -0.0884373 
-202.029 99.8734 1.13414 -0.00568257 0.0862664 0.0474297 -0.108672 -0.133964 -0.355381 0.38209 0.300796 0.0663441 -0.0194412 0.146856 -0.00661979 -0.0756208 -0.0904723 0.0467288 -1.47859 -0.30487 -5.36758 -0.107645 0.215996 -0.240676 0.00192039 0.167068 -1.7056e-06 0.214087 -0.00392689 0.140554 -0.647984 2.69345 0.0301798 0.0227739 0.422667 0.0013431 0.643704 -3.16131 -0.0139406 -1.82857 2.1646 0.035457 -0.00508652 0.158564 -0.00332838 1.76957 -2.41655 0.0166556 
-202.06 99.8714 1.15231 -0.00542104 0.112585 0.00303964 -0.169059 -0.158932 -0.44577 0.520976 0.308759 0.0699079 -0.0148004 0.110548 -0.00802305 -0.0521696 -0.0453526 0.0717436 -1.87343 -0.396212 -6.92497 -0.144576 0.216939 -0.286501 0.00192038 -0.0304638 -1.70559e-06 0.458686 0.099706 0.116108 -0.630636 2.63452 0.097397 0.0360398 0.518265 0.00134312 0.619195 -3.22651 -0.0386527 -1.79833 2.22927 0.18989 -0.0050882 0.129629 -0.00332837 1.69025 -2.48872 -0.0945679 
-202.087 99.8712 1.18487 -0.0186616 0.133064 -0.104573 -0.201697 -0.216285 -0.510394 0.616619 0.460963 0.112469 -0.0354361 0.265571 -0.0194275 -0.0434304 -0.257864 0.0196131 -2.15193 -0.441279 -8.07706 -0.220215 0.336652 -0.204047 0.00192039 0.167048 -1.7056e-06 0.400878 0.16566 0.242627 -0.604139 2.58846 0.176375 0.0337974 0.541147 0.00134313 0.602104 -3.23339 0.00237058 -1.75791 2.22815 0.304114 -0.00592176 0.1643 -0.00332838 1.59274 -2.55314 -0.134465 
-202.121 99.8722 1.20605 -0.0153532 0.156789 -0.226728 -0.257458 -0.243792 -0.536022 0.699198 0.513361 0.122757 -0.057475 0.430563 -0.0315754 -0.19566 -0.370909 -0.00315754 -2.35712 -0.490368 -8.98838 -0.313345 0.310449 -0.22888 0.00192039 0.167091 -1.7056e-06 0.52938 0.356152 0.145374 -0.589593 2.67705 0.246626 0.0305548 0.394162 0.0013431 0.640298 -3.21263 0.0314454 -1.7501 2.14646 0.283276 -0.000933697 0.218385 -0.00332839 1.60321 -2.54614 0.030411 
-202.162 99.8739 1.21548 -0.0085715 0.164701 -0.329385 -0.326926 -0.222386 -0.580526 0.797041 0.684222 0.121054 -0.118887 0.898426 -0.0656753 -0.286361 -0.720154 0.0433769 -2.43118 -0.651139 -9.54264 -0.422068 0.409799 -0.208476 0.00192021 0.118908 8.24948e-05 0.423059 0.434599 0.182904 -0.573679 2.72881 0.333783 0.01939 0.277807 0.00134308 0.633365 -3.16609 0.0436439 -1.74213 2.09824 0.223153 0.00547574 0.219313 -0.00332839 1.60994 -2.50253 0.174093 
-202.202 99.8694 1.22347 -0.0057623 0.159467 -0.402979 -0.382894 -0.209977 -0.611522 0.857331 0.777394 0.126228 -0.143166 1.08616 -0.0791506 -0.246317 -0.886493 0.103719 -2.46968 -0.799403 -9.9444 -0.503217 0.39624 -0.330136 0.00198457 -0.137826 0.0266819 0.52346 0.683207 -0.0135618 -0.5567 2.61273 0.370091 0.0235535 0.471862 0.00134311 0.656487 -3.23421 0.0873851 -1.6963 2.2955 0.431588 -0.0154835 0.171345 -0.00332838 1.55979 -2.65335 0.0538658 
-202.24 99.8728 1.24378 0.00696972 0.148621 -0.470905 -0.445303 -0.180134 -0.681029 0.924596 0.933106 0.158203 -0.190037 1.44901 -0.10567 -0.255564 -1.10229 0.293708 -2.46277 -1.00693 -10.1931 -0.665449 0.535011 -0.282885 0.00192053 0.167208 -4.94877e-05 0.526488 0.309693 0.129178 -0.546122 2.72998 0.426236 0.0174605 0.305337 0.00134309 0.635137 -3.18639 0.0901293 -1.69948 2.28172 0.229229 -0.0118862 0.162542 -0.00332838 1.66916 -2.60152 0.346311 
-202.275 99.8745 1.27125 0.00271334 0.18837 -0.516272 -0.476142 -0.181435 -0.809318 0.935238 1.0359 0.27536 -0.201403 1.53804 -0.112147 -0.253659 -1.20998 0.248177 -2.46271 -1.25784 -10.3519 -0.776313 0.525508 -0.355396 0.00208062 -0.218481 0.0420201 0.553372 0.683593 0.0253045 -0.515921 2.69507 0.442384 0.00795959 0.225243 0.00134308 0.668453 -3.1152 0.12 -1.68155 2.0925 0.421323 0.00526347 0.270007 -0.0033284 1.57806 -2.57123 0.138204 
-202.317 99.8713 1.27654 0.00371747 0.225971 -0.535504 -0.541531 -0.149975 -0.881394 0.913227 1.04616 0.403517 -0.141955 1.077 -0.078473 -0.291798 -0.668168 0.274218 -2.38514 -1.54566 -10.4963 -0.922264 0.424212 -0.382097 0.0019207 0.167229 -0.000108918 0.543542 0.0422588 0.162159 -0.500985 2.64542 0.470526 0.00808935 0.267348 0.00134308 0.67148 -3.14638 0.0966388 -1.65261 2.21661 0.294123 -0.0129953 0.214694 -0.00332839 1.57137 -2.6736 0.327203 
-202.365 99.8714 1.28487 0.00663 0.227671 -0.563157 -0.601743 -0.111011 -0.936402 0.923006 1.32072 0.484719 -0.155399 1.17998 -0.0860863 -0.388089 -0.812083 0.178643 -2.24924 -1.87406 -10.5973 -1.00458 0.623208 -0.355194 0.00192023 0.119069 7.55654e-05 0.610035 -0.164793 0.254902 -0.471173 2.75372 0.466974 0.00667131 0.130814 0.00134307 0.722002 -3.11796 0.153392 -1.63024 2.21366 0.381559 -0.0075886 0.174253 -0.00332838 1.51498 -2.63687 0.295596 
-202.408 99.8771 1.30506 0.00923423 0.242401 -0.623822 -0.667055 -0.0824453 -0.964223 0.94671 1.53584 0.633701 -0.178191 1.35619 -0.0990483 -0.498627 -0.898358 0.21249 -2.147 -2.17179 -10.7267 -1.06098 0.856087 -0.265667 0.00192007 -0.0255498 -0.000694728 0.781031 -0.0449255 0.329694 -0.446533 2.72208 0.483147 0.00464894 0.0634475 0.00134307 0.721083 -3.03541 0.170084 -1.61856 1.92554 0.27267 0.0028895 0.545221 -0.00332852 1.61351 -2.71797 0.46025 
-202.456 99.8749 1.3112 0.00935195 0.239774 -0.633053 -0.741269 -0.0216077 -0.944736 1.01287 1.6669 0.671367 -0.218531 1.673 -0.121861 -0.579874 -1.12392 0.218965 -1.93309 -2.45911 -10.8179 -1.02404 0.680829 -0.442898 0.00191957 -0.0302709 -0.00153564 0.971861 0.066648 0.244684 -0.409688 2.73603 0.514705 0.00306124 0.0937993 0.00134307 0.695311 -3.07761 0.150104 -1.58363 2.04423 0.457124 0.00764973 0.391765 -0.00332844 1.52151 -2.6914 0.284328 
-202.505 99.8753 1.3305 0.0250005 0.287908 -0.640149 -0.844996 -0.0320192 -0.9522 1.08865 1.58646 0.809726 -0.177541 1.35094 -0.0986564 -0.620696 -0.821003 0.237291 -1.72805 -2.65047 -10.9328 -0.946576 0.5555 -0.59741 0.0019204 0.167312 -6.51652e-06 0.983953 -0.287189 0.439813 -0.39558 2.76189 0.489005 0.00269572 0.0510506 0.00134307 0.697328 -3.11124 0.193314 -1.56804 1.98432 0.444605 0.0117471 0.426751 -0.00332846 1.5169 -2.71146 0.336098 
-202.538 99.8761 1.38528 0.030056 0.339368 -0.702534 -0.901984 -0.0859627 -0.959701 1.15018 1.57512 1.00294 -0.167798 1.27664 -0.093066 -0.500192 -0.633558 0.255847 -1.61177 -2.79531 -10.9585 -0.860839 0.290356 -0.755837 0.00192412 -0.030233 0.0070762 1.0539 0.0397089 0.301458 -0.376505 2.69795 0.491707 -0.0108817 0.0653158 0.00134307 0.719415 -3.12241 0.251839 -1.54527 1.96088 0.550196 0.0152053 0.450146 -0.00332847 1.51623 -2.76185 0.251293 
-202.575 99.8775 1.43445 0.0328517 0.387483 -0.719585 -0.936794 -0.195132 -0.946833 1.21251 1.48352 1.06023 -0.196921 1.50229 -0.109587 -0.571017 -0.927224 0.283593 -1.60375 -2.89508 -11.0167 -0.878336 0.402878 -0.871572 0.00197272 -0.121874 0.024606 1.25356 0.164905 0.372034 -0.348494 2.79152 0.505248 -0.030462 -0.0960377 0.00134307 0.749002 -3.11539 0.252182 -1.52107 1.89628 0.556691 0.0180637 0.532794 -0.00332851 1.54032 -2.8223 0.2586 
-202.597 99.8772 1.48283 0.034638 0.359609 -0.777365 -0.928362 -0.187171 -0.91631 1.19886 1.44097 1.13358 -0.208112 1.58949 -0.115966 -0.666762 -1.05045 0.305367 -1.70715 -3.04111 -11.0202 -0.954791 0.339986 -0.914789 0.00192003 0.167326 0.000122652 1.2629 -0.018288 0.471498 -0.342239 2.81235 0.583814 -0.0309513 -0.0184981 0.00134307 0.762835 -3.18118 0.236915 -1.51612 1.96383 0.45721 0.0203493 0.53101 -0.00332851 1.5604 -2.85481 0.439889 
-202.617 99.8777 1.53276 0.0373065 0.333274 -0.808668 -0.906847 -0.200167 -0.916901 1.15763 1.49642 1.22316 -0.216163 1.65425 -0.120464 -0.656947 -1.06805 0.326118 -1.81855 -3.21767 -10.9312 -0.98024 0.12097 -1.08747 0.00197296 -0.121828 0.0247266 1.25375 0.431014 0.245019 -0.338552 2.9452 0.606854 -0.0232212 -0.118108 0.00134307 0.754626 -3.17641 0.247899 -1.51203 1.99933 0.604367 0.0221066 0.60426 -0.00332855 1.60286 -2.9347 0.318932 
-202.633 99.8768 1.58469 0.0583999 0.295205 -0.804076 -0.904012 -0.172981 -0.94565 1.1532 1.43146 1.28334 -0.248879 1.911 -0.139283 -0.739487 -1.28102 0.333519 -1.92092 -3.37398 -10.8991 -1.07998 0.0824361 -1.10263 0.00192006 0.167356 0.000110156 1.22019 0.213739 0.406525 -0.353043 3.09485 0.65871 -0.0164053 -0.204536 0.00134308 0.715125 -3.19737 0.193258 -1.53153 2.09911 0.586853 0.0233593 0.552367 -0.00332852 1.63806 -2.94007 0.328953 
-202.645 99.8763 1.63201 0.0758817 0.318048 -0.743125 -0.891487 -0.23555 -1.02842 1.14553 1.41155 1.32651 -0.274196 2.11388 -0.153736 -0.777796 -1.5981 0.337823 -1.97869 -3.52969 -10.8348 -1.1501 -0.0167497 -1.12525 0.00192052 0.167357 -4.64259e-05 1.28103 0.267938 0.326657 -0.36501 2.99394 0.641893 -0.00954651 -0.051669 0.00134307 0.69498 -3.26683 0.159362 -1.54433 2.11265 0.579795 0.0241513 0.52509 -0.00332851 1.65314 -2.9468 0.309194 
